<svg width="10" height="10" viewBox="0 0 10 10" fill="none" xmlns="http://www.w3.org/2000/svg">
<path d="M10 3.69141C10 3.54818 9.88932 3.45703 9.66797 3.41797L6.64062 2.96875L5.29297 0.234375C5.21484 0.078125 5.11719 0 5 0C4.88281 0 4.78516 0.078125 4.70703 0.234375L3.35938 2.96875L0.332031 3.41797C0.110677 3.45703 0 3.54818 0 3.69141C0 3.78255 0.0520833 3.88021 0.15625 3.98438L2.34375 6.11328L1.81641 9.12109C1.81641 9.17318 1.81641 9.21224 1.81641 9.23828C1.81641 9.31641 1.83594 9.38477 1.875 9.44336C1.91406 9.50195 1.97917 9.53125 2.07031 9.53125C2.13542 9.53125 2.21354 9.50521 2.30469 9.45312L5 8.04688L7.69531 9.45312C7.78646 9.50521 7.86458 9.53125 7.92969 9.53125C8.02083 9.53125 8.08594 9.50195 8.125 9.44336C8.16406 9.38477 8.18359 9.31641 8.18359 9.23828C8.18359 9.1862 8.18359 9.14714 8.18359 9.12109L7.65625 6.11328L9.84375 3.98438C9.94792 3.88021 10 3.78255 10 3.69141Z" fill="#FF9C05"/>
</svg>
